<?xml version="1.0" encoding="UTF-8" standalone="no"?>
<svg
   xmlns:dc="http://purl.org/dc/elements/1.1/"
   xmlns:cc="http://creativecommons.org/ns#"
   xmlns:rdf="http://www.w3.org/1999/02/22-rdf-syntax-ns#"
   xmlns:svg="http://www.w3.org/2000/svg"
   xmlns="http://www.w3.org/2000/svg"
   xmlns:sodipodi="http://sodipodi.sourceforge.net/DTD/sodipodi-0.dtd"
   xmlns:inkscape="http://www.inkscape.org/namespaces/inkscape"
   height="512"
   width="512"
   viewBox="0 0 512 512"
   id="flag-icon-css-gb"
   version="1.1"
   sodipodi:docname="gb.svg"
   inkscape:version="0.92.2 (5c3e80d, 2017-08-06)">
  <metadata
     id="metadata22">
    <rdf:RDF>
      <cc:Work
         rdf:about="">
        <dc:format>image/svg+xml</dc:format>
        <dc:type
           rdf:resource="http://purl.org/dc/dcmitype/StillImage" />
        <dc:title></dc:title>
      </cc:Work>
    </rdf:RDF>
  </metadata>
  <sodipodi:namedview
     pagecolor="#ffffff"
     bordercolor="#666666"
     borderopacity="1"
     objecttolerance="10"
     gridtolerance="10"
     guidetolerance="10"
     inkscape:pageopacity="0"
     inkscape:pageshadow="2"
     inkscape:window-width="1347"
     inkscape:window-height="868"
     id="namedview20"
     showgrid="false"
     inkscape:zoom="0.4609375"
     inkscape:cx="256"
     inkscape:cy="256"
     inkscape:window-x="0"
     inkscape:window-y="0"
     inkscape:window-maximized="0"
     inkscape:current-layer="g17" />
  <defs
     id="defs5">
    <clipPath
       id="a">
      <path
         fill-opacity=".67"
         d="M250 0h500v500H250z"
         id="path2" />
    </clipPath>
  </defs>
  <g
     clip-path="url(#a)"
     transform="translate(-256) scale(1.024)"
     id="g17">
    <g
       stroke-width="1pt"
       id="g15">
      <path
         fill="#006"
         d="M0 0h1000.02v500.01H0z"
         id="path7"
         style="fill:#333333" />
      <path
         d="M0 0v55.903l888.218 444.11h111.802V444.11L111.802.003H0zm1000.02 0v55.9L111.802 500.01H0v-55.9L888.218 0h111.802z"
         fill="#fff"
         id="path9" />
      <path
         d="M416.675 0v500.01h166.67V0h-166.67zM0 166.67v166.67h1000.02V166.67H0z"
         fill="#fff"
         id="path11" />
      <path
         d="M0 200.004v100.002h1000.02V200.004H0zM450.01 0v500.01h100V0h-100zM0 500.01l333.34-166.67h74.535L74.535 500.01H0zM0 0l333.34 166.67h-74.535L0 37.27V0zm592.145 166.67L925.485 0h74.535L666.68 166.67h-74.535zm407.875 333.34L666.68 333.34h74.535l258.805 129.403v37.267z"
         fill="#c00"
         id="path13"
         style="fill:#333333" />
    </g>
  </g>
</svg>
